<svg viewBox="0 0 500 200" xmlns="http://www.w3.org/2000/svg">
  <path id="g" d="M 95.406 177.791 C 98.366 174.831 101.786 175.534 104.24 173.079 C 110.576 166.744 117.012 162.663 124.264 155.412 C 126.184 153.492 128.107 149.184 128.975 146.578 C 130.387 142.341 134.058 137.59 136.042 133.621 C 144.135 117.435 142.867 96.902 147.232 79.44 C 150.353 66.955 151.348 42.331 143.11 34.092 C 141.378 32.361 137.118 38.42 136.631 39.393 C 134.373 43.91 135.271 57.508 136.631 62.95 C 140.058 76.655 139.143 93.886 145.465 106.531 C 147.307 110.214 147.803 118.594 151.943 120.665 C 162.752 126.069 166.667 119.79 166.667 107.708 C 166.667 105.51 167.612 100.764 166.667 98.874 C 166.069 97.679 162.544 90.041 162.544 90.041 C 162.544 90.041 164.021 94.318 164.311 94.752 C 167.036 98.84 167.288 103.128 168.433 107.708 C 171.731 120.897 170.907 147.638 161.955 156.589 C 159.212 159.333 150.532 176.968 146.054 172.49 C 142.729 169.165 149.375 162.903 150.177 161.301 C 153.988 153.678 172.425 143.404 180.212 139.51 C 181.226 139.004 189.635 135.965 189.635 134.799" style="fill: rgba(216, 216, 216, 0.01); stroke: rgb(255, 255, 255);"/>
  <path id="arrick" d="M 199.058 91.807 C 193.227 90.35 192.131 91.666 188.457 95.341 C 187.84 95.957 184.822 99.951 186.69 101.819 C 189.815 104.944 197.338 98.828 198.469 97.697 C 198.689 97.476 198.469 92.396 198.469 92.396 C 198.469 92.396 198.353 95.697 198.469 95.93 C 199.978 98.949 201.016 100.443 203.769 101.819 C 207.98 103.925 212.882 98.595 214.37 97.108 C 214.959 96.519 213.781 94.163 214.37 93.574 C 214.735 93.209 229.923 93.815 230.86 94.752 C 230.976 94.868 233.216 95.93 233.216 95.93 C 233.216 95.93 224.237 98.141 226.737 100.641 C 232.064 105.968 239.045 96.05 240.283 93.574 C 240.534 93.071 247.112 93.574 247.939 93.574 C 248.81 93.574 252.748 93.083 253.239 93.574 C 255.743 96.078 244.289 97.638 252.65 101.819 C 254.252 102.62 264.856 98.072 266.784 97.108 C 268.832 96.084 268.699 89.6 270.318 91.218 C 270.666 91.566 262.059 102.401 266.784 104.764 C 271.6 107.171 273.825 99.472 277.385 98.286 C 279.829 97.471 289.383 96.299 291.519 94.163 C 292.176 93.506 287.933 93.574 287.397 93.574 C 284.521 93.574 282.845 95.293 282.097 98.286 C 280.366 105.21 284.391 111.273 291.519 107.708 C 297.073 104.931 300.6 96.615 303.298 91.218 C 306.741 84.332 311.749 78.129 313.899 70.606 C 314.979 66.826 316.843 62.173 316.843 58.238 C 316.843 58.057 316.843 54.116 316.843 54.116 C 316.843 54.116 315.693 59.087 315.665 59.416 C 315.211 64.865 315.467 70.446 315.077 75.906 C 313.937 91.865 313.325 117.116 301.531 128.91 C 301.272 129.169 301.556 118.824 302.12 117.131 C 303.555 112.825 309.854 90.08 318.021 94.163 C 320.824 95.564 320.741 101.145 321.555 103.586 C 323.467 109.322 326.877 116.565 330.978 120.665 C 335.028 124.715 349.527 122.153 354.535 122.432 C 371.209 123.358 387.85 123.609 404.594 123.609" style="fill: rgba(216, 216, 216, 0.01); stroke: rgb(255, 255, 255);"/>
</svg>